<?xml version="1.0" encoding="UTF-8"?> <svg xmlns="http://www.w3.org/2000/svg" width="163" height="67" viewBox="0 0 163 67" fill="none"><g clip-path="url(#clip0_1903_361)"><path d="M139.513 55.063C132.727 55.063 127.261 49.3614 127.576 42.4345C127.855 36.2962 132.86 31.2497 138.944 30.9585C145.803 30.6431 151.463 36.1628 151.463 43.0047C151.463 49.8466 146.118 55.063 139.513 55.063ZM139.513 19.3006C126.546 19.3006 116.027 29.9153 116.027 43.0047C116.027 46.6683 116.851 50.1378 118.33 53.2433C117.287 54.881 115.482 55.985 113.446 55.985C110.234 55.985 107.628 53.3161 107.604 50.0165V36.5146L107.665 30.0972V16.5953C107.386 7.64259 99.2906 0 89.85 0C80.4093 0 72.6774 7.32718 72.0472 16.5953V25.0386L66.2301 26.3366C65.8423 26.4215 65.5636 26.7612 65.5636 27.1736V33.9185C65.5636 34.4523 66.0483 34.8526 66.5573 34.7434L71.9381 33.5425V50.0165C71.9139 53.3161 69.3083 55.985 66.0968 55.985C62.8853 55.985 60.2918 53.3161 60.2676 50.0165L60.3039 40.6028V35.9202C59.6738 26.652 51.9419 19.3127 42.4891 19.3127C33.0363 19.3127 25.3165 26.652 24.6863 35.9202V50.4047C24.6863 53.7043 22.0686 56.3732 18.8571 56.3732C15.6456 56.3732 13.04 53.7043 13.0158 50.4047V23.8255C13.0158 23.2917 12.5068 22.8914 11.9978 23.0005L1.73301 25.3055C1.3452 25.3904 1.07859 25.73 1.07859 26.1304V50.4047C1.70877 59.6728 9.44067 67 18.8813 67C28.322 67 36.066 59.6728 36.6962 50.4047V39.0985V35.9202C36.6962 34.2703 37.3628 32.7782 38.4292 31.6985C39.4836 30.631 40.9378 29.9517 42.5375 29.9517C45.7491 29.9517 48.3546 32.6084 48.3789 35.9202V40.6028L48.3425 47.7237V50.0286C48.9727 59.2968 56.7046 66.6239 66.1574 66.6239C75.6102 66.6239 83.3421 59.2968 83.9723 50.0286V47.8329L84.0329 30.8372H84.0086L89.3288 29.6605C89.7167 29.5756 89.9833 29.2359 89.9833 28.8356V22.1028C89.9833 21.5812 89.4864 21.1809 88.9774 21.2901L84.0813 22.3576V16.5953C84.0813 14.9455 84.7479 13.4534 85.8022 12.3858C86.8687 11.3062 88.323 10.639 89.9227 10.639C93.1221 10.639 95.7277 13.3078 95.7519 16.6075V30.1094L95.6913 47.7237V50.0286C96.3215 59.2968 104.053 66.6239 113.506 66.6239C118.124 66.6239 122.317 64.8771 125.492 62.002C129.503 65.0348 134.508 66.7938 139.926 66.721C152.069 66.5269 162.237 56.7614 163 44.5332C163.836 30.7644 153.026 19.3127 139.562 19.3127M13.9247 12.1068C13.9247 8.22488 10.8101 5.08293 6.9684 5.08293C3.12669 5.08293 0 8.23701 0 12.1068C0 15.9766 3.11457 19.1307 6.95628 19.1307C10.798 19.1307 13.9126 15.9888 13.9126 12.1068" fill="white"></path></g><defs><clipPath id="clip0_1903_361"><rect width="163" height="67" fill="white"></rect></clipPath></defs></svg> 